<?xml version="1.0" encoding="utf-8"?>
<!-- Generator: Adobe Illustrator 21.1.0, SVG Export Plug-In . SVG Version: 6.00 Build 0)  -->
<svg version="1.1" id="Calque_1" xmlns="http://www.w3.org/2000/svg" xmlns:xlink="http://www.w3.org/1999/xlink" x="0px" y="0px"
	 viewBox="0 0 170.1 170.1" style="enable-background:new 0 0 170.1 170.1;" xml:space="preserve">
<style type="text/css">
	.st0{fill:#FFFFFF;}
</style>
<path class="st0" d="M52.2,89.6h15.2v62.6c0,1.2,1,2.2,2.2,2.2h25.8c1.2,0,2.2-1,2.2-2.2V89.9h17.5c1.1,0,2.1-0.9,2.2-2l2.7-23.1
	c0.1-0.6-0.1-1.3-0.6-1.7c-0.4-0.5-1-0.7-1.7-0.7H97.7V47.9c0-4.4,2.3-6.6,7-6.6c0.7,0,13.2,0,13.2,0c1.2,0,2.2-1,2.2-2.2V17.9
	c0-1.2-1-2.2-2.2-2.2H99.7c-0.1,0-0.4,0-0.8,0c-3.2,0-14.1,0.6-22.8,8.6c-9.6,8.8-8.3,19.4-7.9,21.2v16.9h-16c-1.2,0-2.2,1-2.2,2.2
	v22.8C50,88.6,51,89.6,52.2,89.6z"/>
</svg>
