<?xml version="1.0" encoding="utf-8"?>
<!-- Generator: Adobe Illustrator 21.1.0, SVG Export Plug-In . SVG Version: 6.00 Build 0)  -->
<svg version="1.1" id="Calque_1" xmlns="http://www.w3.org/2000/svg" xmlns:xlink="http://www.w3.org/1999/xlink" x="0px" y="0px"
	 viewBox="0 0 229.6 229.6" style="enable-background:new 0 0 229.6 229.6;" xml:space="preserve">
<style type="text/css">
	.st0{fill:#ffffff;}
</style>
<g>
	<path class="st0" d="M114.8,0C51.5,0,0,51.5,0,114.8c0,63.3,51.5,114.8,114.8,114.8c63.3,0,114.8-51.5,114.8-114.8
		C229.6,51.5,178.1,0,114.8,0z M25.5,54.5c13-19.2,32.3-33.9,54.3-41.5c0.7-0.2,1.4,0,1.8,0.6c0.4,0.6,0.3,1.4-0.2,1.9
		c-9.7,9.7-17.8,23.7-23.5,40.4c-0.2,0.6-0.8,1-1.4,1H26.7c-0.6,0-1.1-0.3-1.3-0.8C25.1,55.5,25.1,54.9,25.5,54.5z M19.4,64.6
		c0.3-0.5,0.8-0.8,1.3-0.8h32.5c0.5,0,0.9,0.2,1.2,0.6c0.3,0.4,0.4,0.9,0.3,1.3c-3.7,13.8-5.8,28.7-6.1,44.2c0,0.8-0.7,1.5-1.5,1.5
		H8.7c-0.4,0-0.8-0.2-1.1-0.5c-0.3-0.3-0.4-0.7-0.4-1.1C7.9,93.7,12.1,78.5,19.4,64.6z M19.4,165.1c-7.4-13.9-11.5-29.1-12.2-45.2
		c0-0.4,0.1-0.8,0.4-1.1c0.3-0.3,0.7-0.5,1.1-0.5h38.4c0.8,0,1.5,0.7,1.5,1.5c0.4,15.5,2.4,30.4,6.1,44.2c0.1,0.5,0,0.9-0.3,1.3
		c-0.3,0.4-0.7,0.6-1.2,0.6H20.8C20.2,165.9,19.7,165.5,19.4,165.1z M81.5,216.1C81.5,216.1,81.5,216.1,81.5,216.1
		c-0.3,0.4-0.8,0.7-1.3,0.7c-0.2,0-0.3,0-0.5-0.1c-22-7.6-41.3-22.4-54.3-41.5c-0.3-0.5-0.3-1.1-0.1-1.6c0.3-0.5,0.8-0.8,1.3-0.8
		h29.6c0.6,0,1.2,0.4,1.4,1c5.7,16.7,13.8,30.7,23.5,40.4C81.8,214.7,81.8,215.5,81.5,216.1z M111.3,220.7c0,0.4-0.2,0.9-0.5,1.1
		c-0.3,0.2-0.6,0.4-1,0.4c-0.1,0-0.2,0-0.2,0c-18-2.8-34-20.1-44.1-47.4c-0.2-0.5-0.1-1,0.2-1.4c0.3-0.4,0.7-0.6,1.2-0.6h42.9
		c0.8,0,1.5,0.7,1.5,1.5V220.7z M111.3,164.3c0,0.8-0.7,1.5-1.5,1.5H63.7c-0.7,0-1.3-0.4-1.4-1.1c-4-13.9-6.2-29-6.6-44.9
		c0-0.4,0.1-0.8,0.4-1.1c0.3-0.3,0.7-0.5,1.1-0.5h52.7c0.8,0,1.5,0.7,1.5,1.5V164.3z M111.3,109.8c0,0.8-0.7,1.5-1.5,1.5H57.2
		c-0.4,0-0.8-0.2-1.1-0.5c-0.3-0.3-0.4-0.7-0.4-1.1c0.4-16,2.6-31.1,6.6-44.9c0.2-0.6,0.8-1.1,1.4-1.1h46.1c0.8,0,1.5,0.7,1.5,1.5
		V109.8z M111.3,55.3c0,0.8-0.7,1.5-1.5,1.5H66.9c-0.5,0-1-0.2-1.2-0.6c-0.3-0.4-0.3-0.9-0.2-1.4c10-27.3,26.1-44.5,44.1-47.4
		c0.4-0.1,0.9,0.1,1.2,0.3c0.3,0.3,0.5,0.7,0.5,1.1V55.3z M210.2,64.6c7.4,13.9,11.5,29.1,12.2,45.2c0,0.4-0.1,0.8-0.4,1.1
		c-0.3,0.3-0.7,0.5-1.1,0.5h-38.4c-0.8,0-1.5-0.7-1.5-1.5c-0.4-15.5-2.4-30.4-6.1-44.2c-0.1-0.4,0-0.9,0.3-1.3
		c0.3-0.4,0.7-0.6,1.2-0.6h32.5C209.4,63.8,209.9,64.1,210.2,64.6z M148.1,13.5c0.4-0.6,1.1-0.9,1.8-0.6c22,7.6,41.3,22.3,54.3,41.5
		c0.3,0.5,0.3,1.1,0.1,1.6c-0.3,0.5-0.8,0.8-1.3,0.8h-29.6c-0.6,0-1.2-0.4-1.4-1c-5.7-16.7-13.8-30.7-23.5-40.4
		C147.8,14.9,147.8,14.1,148.1,13.5z M118.3,8.9c0-0.4,0.2-0.9,0.5-1.1c0.3-0.3,0.8-0.4,1.2-0.3c18,2.8,34,20.1,44.1,47.4
		c0.2,0.5,0.1,1-0.2,1.4c-0.3,0.4-0.7,0.6-1.2,0.6h-42.9c-0.8,0-1.5-0.7-1.5-1.5V8.9z M118.3,65.3c0-0.8,0.7-1.5,1.5-1.5h46.1
		c0.7,0,1.3,0.4,1.4,1.1c4,13.9,6.2,29,6.6,44.9c0,0.4-0.1,0.8-0.4,1.1c-0.3,0.3-0.7,0.5-1.1,0.5h-52.7c-0.8,0-1.5-0.7-1.5-1.5V65.3
		z M118.3,119.8c0-0.8,0.7-1.5,1.5-1.5h52.7c0.4,0,0.8,0.2,1.1,0.5c0.3,0.3,0.4,0.7,0.4,1.1c-0.4,16-2.6,31.1-6.6,44.9
		c-0.2,0.6-0.8,1.1-1.4,1.1h-46.1c-0.8,0-1.5-0.7-1.5-1.5V119.8z M120,222.2c-0.1,0-0.2,0-0.2,0c-0.4,0-0.7-0.1-1-0.4
		c-0.3-0.3-0.5-0.7-0.5-1.1v-46.4c0-0.8,0.7-1.5,1.5-1.5h42.9c0.5,0,1,0.2,1.2,0.6c0.3,0.4,0.3,0.9,0.2,1.4
		C154.1,202.1,138,219.3,120,222.2z M204.2,175.2c-13,19.2-32.3,33.9-54.3,41.5c-0.2,0.1-0.3,0.1-0.5,0.1c-0.5,0-1-0.3-1.3-0.7
		c-0.4-0.6-0.3-1.4,0.2-1.9c9.7-9.7,17.8-23.7,23.5-40.4c0.2-0.6,0.8-1,1.4-1h29.6c0.6,0,1.1,0.3,1.3,0.8
		C204.5,174.1,204.5,174.7,204.2,175.2z M210.2,165.1c-0.3,0.5-0.8,0.8-1.3,0.8h-32.5c-0.5,0-0.9-0.2-1.2-0.6
		c-0.3-0.4-0.4-0.9-0.3-1.3c3.7-13.8,5.8-28.7,6.1-44.2c0-0.8,0.7-1.5,1.5-1.5h38.4c0.4,0,0.8,0.2,1.1,0.5c0.3,0.3,0.4,0.7,0.4,1.1
		C221.7,135.9,217.5,151.1,210.2,165.1z"/>
</g>
</svg>
