<?xml version="1.0" encoding="utf-8"?>
<!-- Generator: Adobe Illustrator 21.1.0, SVG Export Plug-In . SVG Version: 6.00 Build 0)  -->
<svg version="1.1" id="Calque_1" xmlns="http://www.w3.org/2000/svg" xmlns:xlink="http://www.w3.org/1999/xlink" x="0px" y="0px"
	 viewBox="0 0 170.1 170.1" style="enable-background:new 0 0 170.1 170.1;" xml:space="preserve">
<style type="text/css">
	.st0{fill:#FFFFFF;}
</style>
<g>
	<path class="st0" d="M112.4,24H57.7C39.1,24,24,39.1,24,57.7v54.7c0,18.6,15.1,33.7,33.7,33.7h54.7c18.6,0,33.7-15.1,33.7-33.7
		V57.7C146,39.1,130.9,24,112.4,24z M135.2,112.4c0,12.6-10.2,22.8-22.8,22.8H57.7c-12.6,0-22.8-10.2-22.8-22.8V57.7
		c0-12.6,10.2-22.8,22.8-22.8h54.7c12.6,0,22.8,10.2,22.8,22.8L135.2,112.4L135.2,112.4z"/>
	<path class="st0" d="M85,53.6c-17.3,0-31.4,14.1-31.4,31.4c0,17.3,14.1,31.4,31.4,31.4s31.4-14.1,31.4-31.4
		C116.5,67.7,102.4,53.6,85,53.6z M85,105.6c-11.4,0-20.6-9.2-20.6-20.6c0-11.4,9.2-20.6,20.6-20.6s20.6,9.2,20.6,20.6
		C105.6,96.4,96.4,105.6,85,105.6z"/>
	<path class="st0" d="M117.8,44.4c-2.1,0-4.1,0.8-5.6,2.3c-1.5,1.5-2.3,3.5-2.3,5.6c0,2.1,0.9,4.1,2.3,5.6c1.5,1.5,3.5,2.3,5.6,2.3
		c2.1,0,4.1-0.9,5.6-2.3c1.5-1.5,2.3-3.5,2.3-5.6c0-2.1-0.8-4.1-2.3-5.6C121.9,45.3,119.9,44.4,117.8,44.4z"/>
</g>
</svg>
