<?xml version="1.0" encoding="utf-8"?>
<svg version="1.1" id="Calque_1" xmlns="http://www.w3.org/2000/svg" xmlns:xlink="http://www.w3.org/1999/xlink" x="0px" y="0px"
	 viewBox="0 0 734.2 388.4" style="enable-background:new 0 0 734.2 388.4;" xml:space="preserve">
<g>
	<path fill="white" d="M734.2,388.3H40.9c-23.8,0-40.6-20-40.9-39.1V193.8c29.8,0,56.6-14.3,66.3-21.3c61.8-44.2,113.2-130.3,179-158.3
		C264.6,6,302.1-7.3,349.3,5l56.5,56.3c0,0-29.5-13.9-73.3-13.9c-49.1,0-143.9,40.5-143.9,146.3c0,85.2,58.7,145.1,155.1,145.1
		h340.9L734.2,388.3z"/>
	<path fill="white" d="M338.3,196.3c-3.6,3.5-1.7,7.6,3,7.5h39.1l27.5-23.3c5.8-5.7,11.3-4.6,11.3,1.5v46.4c-0.1,7.4,6.4,7.4,10.3,2.4l28.6-27
		h37.5c3-0.1,5.1-3.9,1.1-7.8l-67.7-66.6c-4.8-4.9-15.3-4.9-19.9,0C407.5,131,338.3,196.3,338.3,196.3 M654.2,308.7H336.4
		c-36,0-84.2-17.2-98.8-50.7c0,0,142.9-145.8,149.8-152.7c17.1-17,47.6-17,62.4,0L654.2,308.7z"/>
</g>
</svg>
