<?xml version="1.0" encoding="utf-8"?>
<!-- Generator: Adobe Illustrator 21.1.0, SVG Export Plug-In . SVG Version: 6.00 Build 0)  -->
<svg version="1.1" id="Calque_1" xmlns="http://www.w3.org/2000/svg" xmlns:xlink="http://www.w3.org/1999/xlink" x="0px" y="0px"
	 viewBox="0 0 119.1 187.1" style="enable-background:new 0 0 119.1 187.1;" xml:space="preserve">
<style type="text/css">
	.st0{fill:#ffffff;}
</style>
<g id="XMLID_2962_">
	<path class="st0" d="M59.5,187.1l-3.4-8.4C51.9,168,43.7,154.8,35,140.9C18.6,114.5,0,84.6,0,59.5C0,26.7,26.7,0,59.5,0
		s59.5,26.7,59.5,59.5c0,25.1-18.6,55-35,81.4c-8.7,14-16.9,27.2-21.2,37.8L59.5,187.1z M59.5,7.4C30.7,7.4,7.3,30.8,7.3,59.5
		c0,23,18,51.9,33.9,77.4c7,11.2,13.6,21.9,18.4,31.5c4.7-9.5,11.4-20.3,18.4-31.5c15.9-25.5,33.9-54.4,33.9-77.4
		C111.8,30.8,88.3,7.4,59.5,7.4z M59.5,91.1c-17.4,0-31.6-14.2-31.6-31.6s14.2-31.6,31.6-31.6s31.6,14.2,31.6,31.6
		S76.9,91.1,59.5,91.1z M59.5,35.3c-13.4,0-24.3,10.9-24.3,24.2s10.9,24.2,24.3,24.2s24.3-10.9,24.3-24.2S72.9,35.3,59.5,35.3z"/>
</g>
</svg>
