<?xml version="1.0" encoding="utf-8"?>
<!-- Generator: Adobe Illustrator 21.1.0, SVG Export Plug-In . SVG Version: 6.00 Build 0)  -->
<svg version="1.1" id="Calque_1" xmlns="http://www.w3.org/2000/svg" xmlns:xlink="http://www.w3.org/1999/xlink" x="0px" y="0px"
	 viewBox="0 0 170.1 170.1" style="enable-background:new 0 0 170.1 170.1;" xml:space="preserve">
<style type="text/css">
	.st0{fill:#FFFFFF;}
</style>
<g>
	<g>
		<path class="st0" d="M142.9,87.5c-0.7-3.2-2.3-5.9-4.7-8c-2.4-2.2-5.2-3.4-8.3-3.8C120.1,74.6,105.1,74,85,74
			c-20,0-35,0.5-44.9,1.6c-3.2,0.4-6,1.6-8.3,3.8c-2.4,2.2-3.9,4.8-4.7,8c-1.4,6.3-2.1,15.7-2.1,28.3c0,12.8,0.7,22.3,2.1,28.3
			c0.7,3.2,2.3,5.9,4.7,8c2.4,2.2,5.2,3.4,8.3,3.7C50,157,65,157.6,85,157.6c20,0,35-0.6,44.9-1.7c3.1-0.3,5.9-1.6,8.3-3.7
			c2.4-2.2,3.9-4.8,4.7-8c1.4-6.3,2.1-15.7,2.1-28.3C145,103,144.3,93.5,142.9,87.5z M59.3,95.6h-8.7v46.1h-8.1V95.6H34V88h25.3
			L59.3,95.6L59.3,95.6z M81.2,141.7h-7.2v-4.4c-2.9,3.3-5.7,4.9-8.3,4.9c-2.5,0-4-1-4.7-3c-0.4-1.3-0.6-3.3-0.6-5.9v-31.7h7.2v29.5
			c0,1.7,0,2.7,0.1,2.8c0.2,1.1,0.7,1.7,1.7,1.7c1.5,0,3-1.1,4.6-3.4v-30.6h7.2L81.2,141.7L81.2,141.7z M108.7,129.7
			c0,3.9-0.2,6.6-0.7,8.1c-0.9,3-2.8,4.5-5.8,4.5c-2.6,0-5.1-1.5-7.5-4.5v3.9h-7.2V88h7.2v17.6c2.3-2.9,4.8-4.4,7.5-4.4
			c2.9,0,4.8,1.5,5.8,4.5c0.5,1.4,0.7,4.1,0.7,8V129.7z M136.1,123.1h-14.5v7c0,3.7,1.2,5.6,3.7,5.6c1.8,0,2.9-1,3.2-2.9
			c0.1-0.5,0.2-2.2,0.2-4.9h7.4v1.1c0,2.6-0.1,4.2-0.2,4.7c-0.2,1.5-0.7,2.9-1.7,4.4c-1.9,2.9-4.9,4.3-8.7,4.3
			c-3.7,0-6.6-1.4-8.7-4.1c-1.6-2-2.3-5.1-2.3-9.4v-14c0-4.3,0.8-7.4,2.3-9.4c2.1-2.8,5-4.1,8.7-4.1c3.6,0,6.5,1.4,8.6,4.1
			c1.5,2,2.2,5.1,2.2,9.4L136.1,123.1L136.1,123.1z"/>
		<path class="st0" d="M98.3,107.8c-1.2,0-2.5,0.6-3.6,1.8V134c1.2,1.2,2.4,1.8,3.6,1.8c2.1,0,3.2-1.8,3.2-5.4v-17.1
			C101.5,109.6,100.4,107.8,98.3,107.8z"/>
		<path class="st0" d="M125.2,107.8c-2.4,0-3.6,1.8-3.6,5.5v3.7h7.3v-3.7C128.9,109.6,127.6,107.8,125.2,107.8z"/>
		<path class="st0" d="M54.6,44.8v21.9h8.1V44.8l9.8-32.3h-8.3l-5.5,21.3L53,12.5h-8.6c1.5,4.5,3.3,9.6,5.3,15.1
			C52.2,35.1,53.8,40.8,54.6,44.8z"/>
		<path class="st0" d="M83.3,67.3c3.7,0,6.6-1.4,8.6-4.1c1.5-2,2.3-5.2,2.3-9.6V39.4c0-4.3-0.8-7.5-2.3-9.5c-2-2.8-4.9-4.1-8.6-4.1
			c-3.6,0-6.5,1.4-8.5,4.1c-1.5,2-2.3,5.2-2.3,9.5v14.2c0,4.3,0.8,7.5,2.3,9.6C76.9,65.9,79.7,67.3,83.3,67.3z M79.9,38
			c0-3.7,1.2-5.6,3.5-5.6c2.3,0,3.5,1.9,3.5,5.6v17c0,3.8-1.2,5.7-3.5,5.7c-2.3,0-3.5-1.9-3.5-5.7V38z"/>
		<path class="st0" d="M105.6,67.3c2.7,0,5.5-1.7,8.3-5v4.5h7.4V26.3H114v30.9c-1.6,2.3-3.2,3.5-4.6,3.5c-1,0-1.5-0.6-1.7-1.8
			c-0.1-0.1-0.1-1.1-0.1-2.8V26.3h-7.4v31.9c0,2.8,0.2,4.8,0.6,6.1C101.5,66.3,103.1,67.3,105.6,67.3z"/>
	</g>
</g>
</svg>
